<svg width="300" height="40" viewBox="0 0 79.374999 10.583333" version="1.1" id="svg1" xml:space="preserve" xmlns:xlink="http://www.w3.org/1999/xlink" xmlns="http://www.w3.org/2000/svg" xmlns:svg="http://www.w3.org/2000/svg"><defs id="defs1"><linearGradient id="linearGradient79"><stop style="stop-color:#c29322;stop-opacity:1;" offset="0" id="stop79" /><stop style="stop-color:#ebe5b4;stop-opacity:1;" offset="0.50710464" id="stop81" /><stop style="stop-color:#c29322;stop-opacity:1;" offset="1" id="stop80" /></linearGradient><linearGradient id="aG" x1="0" y1="0" x2="1" y2="1"><stop offset="0%" stop-color="#6366f1" id="stop1-1" /><stop offset="100%" stop-color="#38bdf8" id="stop2-9" /></linearGradient><linearGradient xlink:href="#aG" id="linearGradient14" x1="15.961932" y1="19.76379" x2="69.128311" y2="72.930168" gradientTransform="matrix(2.6764795,0,0,0.42319979,13.706754,4.0874149)" gradientUnits="userSpaceOnUse" /><linearGradient xlink:href="#aG" id="linearGradient15" x1="1.6329932" y1="9.7979593" x2="11.430952" y2="19.595919" gradientTransform="scale(2.4494897,0.40824829)" gradientUnits="userSpaceOnUse" /><linearGradient xlink:href="#aG" id="linearGradient16" x1="14.696938" y1="4.0824828" x2="24.494898" y2="13.880442" gradientTransform="scale(0.40824829,2.4494897)" gradientUnits="userSpaceOnUse" /><linearGradient xlink:href="#aG" id="linearGradient17" x1="34.292854" y1="4.0824828" x2="44.090816" y2="13.880442" gradientTransform="scale(0.40824829,2.4494897)" gradientUnits="userSpaceOnUse" /><linearGradient xlink:href="#aG" id="linearGradient18" x1="53.888775" y1="4.0824828" x2="63.686733" y2="13.880442" gradientTransform="scale(0.40824829,2.4494897)" gradientUnits="userSpaceOnUse" /><linearGradient xlink:href="#aG" id="linearGradient19" x1="1.4142137" y1="98.994949" x2="9.8994951" y2="107.48023" gradientTransform="scale(2.8284271,0.35355339)" gradientUnits="userSpaceOnUse" /><linearGradient xlink:href="#aG" id="linearGradient20" x1="4.7609525" y1="3.3606722" x2="33.326668" y2="31.926386" gradientTransform="scale(0.84016805,1.1902381)" gradientUnits="userSpaceOnUse" /><linearGradient xlink:href="#linearGradient79" id="linearGradient80" x1="16.457689" y1="18.912182" x2="39.635181" y2="23.421543" gradientUnits="userSpaceOnUse" /><linearGradient xlink:href="#linearGradient79" id="linearGradient83" x1="28.586843" y1="3.9924009" x2="81.324081" y2="3.9924009" gradientUnits="userSpaceOnUse" /></defs><g id="layer1" style="display:inline"><g id="layer1-64-3" transform="matrix(0.26458333,0,0,0.26458333,-0.71077363,-0.01029714)" style="display:inline"><text xml:space="preserve" style="font-style:normal;font-variant:normal;font-weight:bold;font-stretch:normal;font-size:12.3931px;font-family:'-apple-system',BlinkMacSystemFont,Arial,sans-serif;-inkscape-font-specification:'-apple-system,BlinkMacSystemFont,Arial,sans-serif Bold';writing-mode:lr-tb;direction:ltr;white-space:pre;inline-size:90.8309;display:inline;fill:url(#linearGradient83);stroke-width:1.28213;stroke-dasharray:none;paint-order:markers fill stroke" x="27.758003" y="8.2585802" id="text1-61" transform="matrix(2.2088162,0,0,2.4790188,-7.4566941,12.017701)"><tspan x="27.758003" y="8.2585802" id="tspan1">FILELIST</tspan></text><path style="fill:url(#linearGradient80);fill-opacity:1;stroke:none;stroke-width:0.225039" d="M 10.443253,34.10655 C 4.7739208,19.732226 3.7743994,18.444915 2.6863886,13.644497 c 4.1042251,2.271536 15.2626204,9.351447 15.3915804,9.199771 0.382172,-0.449364 8.136176,-15.614023 9.58423,-17.104817 1.5672,0.9685941 1.036833,3.1298356 9.638089,17.03869 l -1.436984,1.16711 c -1.975925,1.604835 -2.071684,1.110666 -1.535664,1.753306 4.978113,-4.733417 11.181165,-7.939513 16.953669,-11.547727 1.326723,-0.829294 1.410982,-0.733806 1.40512,0.151402 -7.38762,19.952964 -0.09662,0.161473 -7.43049,20.035877 l -17.34644,-0.03743 C 15.95712,34.274894 10.460032,34.149094 10.443253,34.10655 Z m 19.435036,-3.712242 c 4.393322,-4.67935 0.227757,-0.178452 4.446615,-4.691234 l -0.407455,-0.516228 c -0.855504,-1.083888 -5.426032,-10.388231 -6.29259,-11.790392 -4.999916,9.807864 -6.294604,11.678185 -7.72305,14.646991 -0.683301,-0.370448 -9.034061,-5.387908 -11.1257104,-6.860015 0.6184111,1.948453 1.8711784,5.429987 3.2842114,9.114055 3.705964,0 6.587588,0.06717 17.817979,0.09682 z m 16.65179,-8.648429 c -1.268487,0 -11.88824,7.218297 -11.88824,8.400174 2.853249,0.212388 5.748859,0.07944 8.61538,0.03877 1.309738,-2.723306 2.212297,-5.614254 3.27286,-8.438944 z" id="path78" /></g><g id="g6-6" transform="matrix(0.26458333,0,0,0.26458333,-1.0583333,-11.641577)"><text x="56.277832" y="34.951447" fill="url(#aG)" font-family="'-apple-system',BlinkMacSystemFont,Inter,sans-serif" font-weight="800" font-size="30.864px" letter-spacing="3" id="text5-2" style="font-style:normal;font-variant:normal;font-weight:bold;font-stretch:normal;font-size:29px;font-family:'-apple-system',BlinkMacSystemFont,Arial,sans-serif;-inkscape-font-specification:'-apple-system,BlinkMacSystemFont,Arial,sans-serif Bold';fill:url(#linearGradient14);stroke-width:1.06428">AITHER</text><g fill="url(#aG)" id="g5-1" style="fill:url(#linearGradient20)" transform="matrix(1.1764583,0,0,1.1764706,10.176667,-0.70588242)"><path d="M 4,8 H 28 L 24,4 H 8 Z" id="path2-2" style="fill:url(#linearGradient15)" /><rect x="6" y="10" width="4" height="24" rx="1" id="rect2" style="fill:url(#linearGradient16)" /><rect x="14" y="10" width="4" height="24" rx="1" id="rect3" style="fill:url(#linearGradient17)" /><rect x="22" y="10" width="4" height="24" rx="1" id="rect4-0" style="fill:url(#linearGradient18)" /><rect x="4" y="35" width="24" height="3" rx="1" id="rect5" style="fill:url(#linearGradient19)" /></g></g></g></svg>
