<svg width="300" height="40" viewBox="0 0 79.374999 10.583333" version="1.1" id="svg1" xml:space="preserve" xmlns:xlink="http://www.w3.org/1999/xlink" xmlns="http://www.w3.org/2000/svg" xmlns:svg="http://www.w3.org/2000/svg"><defs id="defs1"><linearGradient id="linearGradient10"><stop style="stop-color:#5b58f1;stop-opacity:1;" offset="0" id="stop12" /><stop style="stop-color:#13c4f7;stop-opacity:1;" offset="1" id="stop13" /></linearGradient><linearGradient id="linearGradient8"><stop style="stop-color:#a68df0;stop-opacity:1;" offset="0" id="stop8" /><stop style="stop-color:#8ac6f0;stop-opacity:1;" offset="0.5" id="stop10" /><stop style="stop-color:#baaaf2;stop-opacity:1;" offset="1" id="stop9" /></linearGradient><linearGradient xlink:href="#linearGradient8" id="linearGradient9" x1="0.0047008991" y1="22.922092" x2="41.93198" y2="22.922092" gradientUnits="userSpaceOnUse" /><linearGradient xlink:href="#linearGradient10" id="linearGradient13" x1="48.869675" y1="21.826731" x2="115.94764" y2="21.826731" gradientUnits="userSpaceOnUse" gradientTransform="matrix(0.9377065,0,0,0.9377065,7.1792906,1.8787635)" /><linearGradient xlink:href="#linearGradient8" id="linearGradient1" gradientUnits="userSpaceOnUse" x1="0.0047008991" y1="22.922092" x2="41.93198" y2="22.922092" /><linearGradient xlink:href="#linearGradient8" id="linearGradient3" gradientUnits="userSpaceOnUse" x1="0.0047008991" y1="22.922092" x2="41.93198" y2="22.922092" /><linearGradient xlink:href="#linearGradient8" id="linearGradient5" gradientUnits="userSpaceOnUse" x1="0.0047008991" y1="22.922092" x2="41.93198" y2="22.922092" /><radialGradient id="radialGradient27" cx="13.2" cy="13.2" r="20.799999" fx="13.2" fy="13.2" gradientUnits="userSpaceOnUse" gradientTransform="translate(-3.3084811,38.987807)"><stop offset="0" stop-color="#fff5d6" id="stop26" style="stop-color:#f338f1;stop-opacity:1;" /><stop offset="1" stop-color="#9e8a5a" id="stop27" style="stop-color:#e37a4d;stop-opacity:1;" /></radialGradient><linearGradient xlink:href="#radialGradient27" id="linearGradient22-1" x1="-12.144892" y1="21.88378" x2="103.59717" y2="21.88378" gradientUnits="userSpaceOnUse" gradientTransform="matrix(0.93770575,0,0,0.93770575,14.169879,1.590945)" /><linearGradient xlink:href="#radialGradient27" id="linearGradient24" x1="50.282017" y1="222.52106" x2="159.9716" y2="223.14659" gradientUnits="userSpaceOnUse" /><linearGradient xlink:href="#radialGradient27" id="linearGradient6" gradientUnits="userSpaceOnUse" x1="50.282017" y1="222.52106" x2="159.9716" y2="223.14659" /><linearGradient xlink:href="#radialGradient27" id="linearGradient7" gradientUnits="userSpaceOnUse" x1="50.282017" y1="222.52106" x2="159.9716" y2="223.14659" /></defs><g id="layer1" style="display:inline"><g id="g1-8" transform="matrix(0.26458333,0,0,0.26458333,-0.00124349,-10.608691)"><text x="52.089184" y="33.285496" fill="#d4be88" font-family="'-apple-system',BlinkMacSystemFont,Arial,sans-serif" font-weight="700" font-size="31.7793px" letter-spacing="0.6" id="text8-6-13" style="font-size:29px;fill:url(#linearGradient13);fill-opacity:1;stroke:none;stroke-width:1.47788;stroke-dasharray:none;stroke-opacity:1">STC</text><g id="g8" transform="matrix(0.87618417,0,0,0.87618417,6.632582,0.01186671)" style="fill:url(#linearGradient9);fill-opacity:1"><path d="m 20.707825,14.834223 c -7.060088,0.08675 -14.1245352,0.67141 -15.1308592,1.677739 -1.841207,1.84121 -2.225195,14.33993 -0.53711,17.49414 1.259687,2.35375 28.4961042,3.00389 30.7656242,0.73437 1.61252,-1.61252 1.61252,-16.98904 0,-18.60156 -0.98189,-0.981896 -8.037567,-1.391439 -15.097655,-1.304689 z m 2.789062,3.105469 c 11.508463,-0.01516 11.507813,0 11.507813,7.5 0,7.5 0,7.5 -14,7.5 -14.0000002,0 -13.9744192,5.9e-4 -14.0000002,-5.00781 -0.05633,-11.02757 -0.415775,-9.96992 16.4921872,-9.99219 z" id="path7-1" style="fill:url(#linearGradient1);fill-opacity:1" /><path d="m 33.48517,0.09594246 c -0.74379,0.0132 -2.532256,1.32208504 -6.626954,4.53906204 -6.524359,5.125828 -10.887197,1.417266 -16.654297,-2.998046 -4.3405912,-3.323172 -4.0071042,1.034496 0.83789,3.570312 9.639214,5.0450595 3.462798,4.6433 -1.1523435,4.6875 -8.6732787,0.08306 -9.8847657,2.0588915 -9.8847657,16.1171915 0,12.428833 1.232232,13.683133 2.585937,15.125003 1.180187,1.25705 5.199894,0.14151 5.214844,1.80078 0.03858,4.28254 5.3169102,2.48491 5.0937502,0.23633 -0.160427,-1.61651 16.036701,-2.38387 16.208985,-0.26758 0.321321,3.94699 4.257054,3.62728 5.222654,0.002 0.45104,-1.69342 3.51724,-2.20347 4.81445,-3.10156 2.17116,-1.50315 2.3869,-2.44227 2.70508,-11.812503 0.5143,-15.145898 -1.17136,-17.760344 -11.781247,-18.2852085 -5.434958,-0.268865 -5.435287,-0.269531 -0.78125,-3.769531 2.559717,-1.925 4.668537,-4.0625 4.685547,-4.75 0.0173,-0.70056604 -0.071,-1.10115204 -0.48828,-1.09375004 z M 20.190247,12.699458 c 7.9813,-0.112329 16.086023,0.225298 17.158203,1.113281 2.36725,1.960559 2.43618,22.202493 0.084,24.554686 -1.85535,1.85535 -29.6191352,2.27366 -32.6777342,0.49219 -1.84642,-1.07544 -2.680924,-21.908183 -0.984375,-24.57422 0.579869,-0.911233 8.4386212,-1.473609 16.4199222,-1.585937 z" id="path6-0" style="fill:url(#linearGradient3);fill-opacity:1" /><path d="m 11.621887,19.453362 a 2.8076298,2.6658304 0 0 0 -2.8066405,2.66602 2.8076298,2.6658304 0 0 0 2.8066405,2.66601 2.8076298,2.6658304 0 0 0 2.808594,-2.66601 2.8076298,2.6658304 0 0 0 -2.808594,-2.66602 z m 0.01367,1.27539 a 1.375455,1.4321748 0 0 1 1.376953,1.4336 1.375455,1.4321748 0 0 1 -1.376953,1.43164 1.375455,1.4321748 0 0 1 -1.375,-1.43164 1.375455,1.4321748 0 0 1 1.375,-1.4336 z" style="fill:url(#linearGradient5);fill-opacity:1;stroke-width:5.474;stroke-dashoffset:1.2;paint-order:stroke markers fill" id="path8-3" /></g></g><g id="layer1-9" transform="matrix(0.26458333,0,0,0.26458333,-0.01578756,-0.00721284)"><text x="50.933807" y="33.216911" fill="#d4be88" font-family="'-apple-system',BlinkMacSystemFont,Arial,sans-serif" font-weight="700" font-size="31.7793px" letter-spacing="0.6" id="text8-6-3" style="font-size:29px;fill:url(#linearGradient22-1);stroke-width:1.47811">LST</text><g id="g23" transform="matrix(1.1305419,0,0,1.1305419,-54.541759,-231.54211)" style="fill:url(#linearGradient24)"><path style="fill:url(#linearGradient6)" d="m 63.903929,240.08545 c -7.287267,-0.87916 -13.058684,-6.98981 -13.512876,-14.30713 l -0.109035,-1.75662 0.327274,-0.49948 c 0.834137,-1.27305 1.701489,-1.29476 4.511255,-0.11291 l 2.182582,0.91805 3.529658,-0.9876 c 1.941311,-0.54318 5.077146,-1.42026 6.968522,-1.94908 3.941669,-1.10207 3.765483,-0.91597 2.34799,-2.48012 -1.295988,-1.43007 -1.944212,-2.71556 -2.240431,-4.44297 l -0.21768,-1.26942 0.208757,-1.25981 c 0.594872,-3.58993 3.39137,-6.32942 7.040222,-6.89669 l 1.358795,-0.21125 1.391179,0.30951 c 3.133555,0.69715 5.54986,2.98129 6.321166,5.97542 l 0.325021,1.2617 0.624582,0.11717 c 0.343519,0.0644 1.550658,0.0601 2.68253,-0.01 l 2.057949,-0.12673 0.418292,0.52737 0.418293,0.52736 -0.102415,1.11988 c -0.33914,3.7084 -3.428346,6.30807 -7.495927,6.30807 h -1.245309 v 0.90206 0.90205 l 0.833716,0.97672 c 4.633422,5.4282 2.093988,13.8498 -4.868651,16.14607 l -1.19214,0.39316 -5.593887,0.0454 c -3.076637,0.0249 -6.212882,-0.0293 -6.969432,-0.12059 z m 11.705128,-1.44929 c 3.580317,-0.41165 6.362118,-2.71335 7.400675,-6.12342 l 0.383133,-1.25801 -0.09546,-1.67649 c -0.117516,-2.06382 -0.58669,-3.34421 -1.755779,-4.79159 -1.365207,-1.69017 -1.344056,-1.62672 -1.257144,-3.77156 0.08302,-2.04892 0.162893,-2.29752 1.286097,-4.00301 3.842879,-5.83512 -2.462201,-12.98589 -8.674425,-9.83792 -4.181732,2.11904 -4.791897,7.25858 -1.32478,11.15886 2.542574,2.86023 2.47921,2.90955 -7.106649,5.53125 -8.294029,2.26839 -7.056557,2.14419 -9.768066,0.98043 l -2.208518,-0.94787 -0.298656,0.19256 -0.298655,0.19256 0.02885,1.45793 c 0.126297,6.38257 5.701664,12.16447 12.408586,12.86824 2.102364,0.22061 9.447183,0.23886 11.280794,0.028 z M 64.21544,234.21174 c -2.540498,-0.59787 -4.740657,-2.49679 -3.600106,-3.10719 l 0.379528,-0.20312 1.133573,0.73153 c 4.458211,2.87701 9.985066,0.88376 11.481431,-4.14075 0.408235,-1.37077 0.589566,-1.56109 1.252579,-1.31463 0.512569,0.19053 0.529196,0.67514 0.07341,2.1396 -1.339152,4.3027 -6.178286,6.96347 -10.720412,5.89456 z m 21.517447,-15.42236 c 1.697346,-0.78716 2.93785,-2.37476 3.216327,-4.11626 l 0.120549,-0.75388 -2.402697,0.0218 -2.402698,0.0218 -0.115188,0.64192 c -0.157649,0.87855 -0.77148,2.32627 -1.360862,3.20961 -0.269219,0.40349 -0.593091,0.93044 -0.719714,1.17099 l -0.230223,0.43737 1.444701,-0.0836 c 1.027223,-0.0595 1.73515,-0.21833 2.449805,-0.54976 z" id="path22-3" /><ellipse style="fill:url(#linearGradient7);fill-opacity:1;stroke-width:3.42803;stroke-dasharray:none;paint-order:markers fill stroke" id="path23-8" cx="76.610161" cy="213.76669" rx="1.0546875" ry="1.0976562" /></g></g></g></svg>
